<svg xmlns="http://www.w3.org/2000/svg" width="900" height="600" viewBox="0 0 900 600">
<rect width="900" height="600" fill="#cce8ef"/>
<rect y="350" width="900" height="250" fill="#e9d8a6"/>
<circle cx="760" cy="100" r="60" fill="#f0c75e"/>
<path d="M0 340C180 300 320 390 500 350s260-20 400-30v100H0Z" fill="#75b9cc"/>
<g fill="#171510">
<path d="M420 180c48 0 82 35 82 82 0 38-19 69-46 86v80h-72v-78c-30-16-50-49-50-88 0-47 35-82 86-82z"/>
<circle cx="390" cy="250" r="10" fill="#f3c316"/>
<circle cx="450" cy="250" r="10" fill="#f3c316"/>
</g>
<text x="55" y="85" font-family="Yu Gothic, sans-serif" font-size="38" font-weight="900" fill="#171510">海辺の一枚、強い</text>
</svg>